HIERARCHY
ROOT Hips
{
	OFFSET 0.00000 0.00000 0.00000
	CHANNELS 6 Xposition Yposition Zposition Zrotation Yrotation Xrotation 
	JOINT LHipJoint
	{
		OFFSET 0 0 0
		CHANNELS 3 Zrotation Yrotation Xrotation
		JOINT LeftHip
		{
			OFFSET 1.43652 -1.81092 0.91346
			CHANNELS 3 Zrotation Yrotation Xrotation
			JOINT LeftKnee
			{
				OFFSET 2.45984 -6.75837 0.00000
				CHANNELS 3 Zrotation Yrotation Xrotation
				JOINT LeftAnkle
				{
					OFFSET 2.63718 -7.24559 0.00000
					CHANNELS 3 Zrotation Yrotation Xrotation
					JOINT LeftToe
					{
						OFFSET 0.19690 -0.54098 2.12239
						CHANNELS 3 Zrotation Yrotation Xrotation
						End Site
						{
							OFFSET 0.00000 -0.00000 1.10116
						}
					}
				}
			}
		}
	}
	JOINT RHipJoint
	{
		OFFSET 0 0 0
		CHANNELS 3 Zrotation Yrotation Xrotation
		JOINT RightHip
		{
			OFFSET -1.35116 -1.81092 0.91345
			CHANNELS 3 Zrotation Yrotation Xrotation
			JOINT RightKnee
			{
				OFFSET -2.55576 -7.02189 0.00000
				CHANNELS 3 Zrotation Yrotation Xrotation
				JOINT RightAnkle
				{
					OFFSET -2.61938 -7.19669 0.00000
					CHANNELS 3 Zrotation Yrotation Xrotation
					JOINT RightToe
					{
						OFFSET -0.32509 -0.89318 2.23646
						CHANNELS 3 Zrotation Yrotation Xrotation
						End Site
						{
							OFFSET -0.00000 -0.00000 1.19625
						}
					}
				}
			}
		}
	}
	JOINT lowerback
	{
		OFFSET 0 0 0
		CHANNELS 3 Zrotation Yrotation Xrotation
		JOINT Chest
		{
			OFFSET 0.05193 2.08077 -0.11958
			CHANNELS 3 Zrotation Yrotation Xrotation
			JOINT Chest2
			{
				OFFSET 0.04960 2.08447 0.01967
				CHANNELS 3 Zrotation Yrotation Xrotation
				JOINT lowerneck
				{
					OFFSET 0 0 0
					CHANNELS 3 Zrotation Yrotation Xrotation
					JOINT Neck
					{
						OFFSET -0.10699 1.82066 0.27584
						CHANNELS 3 Zrotation Yrotation Xrotation
						JOINT Head
						{
							OFFSET 0.14949 1.84747 -0.32279
							CHANNELS 3 Zrotation Yrotation Xrotation
							End Site
							{
								OFFSET 0.04969 1.88916 -0.14562
							}
						}
					}
				}
				JOINT LeftCollar
				{
					OFFSET 0 0 0
					CHANNELS 3 Zrotation Yrotation Xrotation
					JOINT LeftShoulder
					{
						OFFSET 3.73629 1.27211 -0.12847
CHANNELS 3 Zrotation Xrotation Yrotation
						JOINT LeftElbow
						{
OFFSET 0 -5.109950 0.000000
CHANNELS 3 Zrotation Xrotation Yrotation
							JOINT LeftWrist
							{
OFFSET 0 -3.212070 0.000000
CHANNELS 3 Zrotation Xrotation Yrotation
								JOINT lhand
								{
									OFFSET 0 0 0
CHANNELS 3 Zrotation Xrotation Yrotation
									JOINT LFingers
									{
OFFSET 0 -0.633490 0.000000
CHANNELS 3 Zrotation Xrotation Yrotation
										End Site
										{
OFFSET 0 -0.510740 0.000000
										}
									}
								}
								JOINT LThumb
								{
OFFSET 0 0.000000 0.000000
CHANNELS 3 Zrotation Xrotation Yrotation
									End Site
									{
OFFSET 0 -0.518530 0.518530
									}
								}
							}
						}
					}
				}
				JOINT RightCollar
				{
					OFFSET 0 0 0
					CHANNELS 3 Zrotation Yrotation Xrotation
					JOINT RightShoulder
					{
						OFFSET -3.70251 1.29541 -0.35354
CHANNELS 3 Zrotation Xrotation Yrotation
						JOINT RightElbow
						{
OFFSET 0 -5.251090 0.000000
CHANNELS 3 Zrotation Xrotation Yrotation
							JOINT RightWrist
							{
OFFSET 0 -3.283640 0.000000
CHANNELS 3 Zrotation Xrotation Yrotation
								JOINT rhand
								{
									OFFSET 0 0 0
CHANNELS 3 Zrotation Xrotation Yrotation
									JOINT RFingers
									{
OFFSET 0 -0.599740 0.000000
CHANNELS 3 Zrotation Xrotation Yrotation
										End Site
										{
OFFSET 0 -0.483530 0.000000
										}
									}
								}
								JOINT RThumb
								{
OFFSET 0 0.000000 0.000000
CHANNELS 3 Zrotation Xrotation Yrotation
									End Site
									{
OFFSET 0 -0.490910 0.490910
									}
								}
							}
						}
					}
				}
			}
		}
	}
}
MOTION
Frames: 5
Frame Time: 0.008333333333333333
12.171000 16.810700 -2.182500 -140.274000 -81.991500 149.698000 0.000000 0.000000 0.000000 2.645400 -5.025900 -28.536000 3.397500 11.312300 33.340500 0.409300 -3.733000 -11.382700 0.182500 -2.751600 -7.587900 0.000000 0.000000 0.000000 13.422900 12.668600 -31.221500 -5.338200 -13.754800 42.263900 -1.058900 10.230800 -18.667800 -0.100700 2.046700 -5.634600 1.302200 -2.102400 15.343800 5.850000 -2.628500 3.956800 5.976800 -1.460300 -4.158800 -9.814100 8.674900 -23.510700 4.703300 13.862800 10.871300 4.535400 6.718900 6.024200 0.000000 -0.000000 0.000000 -18.854300 -39.457200 -88.646900 32.451700 -42.904400 13.047300 29.069400 -1.939000 -6.527700 0.000000 0.000000 0.000000 -7.125000 0.000000 0.000000 1.976300 37.431800 0.368300 0.000000 -0.000000 0.000000 -21.932900 -25.354400 53.807700 -90.122000 -59.999900 -60.105700 -33.624400 -64.311900 -6.390200 0.000000 0.000000 0.000000 7.125000 0.000000 -0.000000 -5.032000 22.329200 -2.753300
12.154129 16.795817 -2.105336 -147.681623 -80.669071 156.897242 0.000000 0.000000 0.000000 2.044644 -3.523688 -28.453136 3.502151 11.466576 33.870286 0.393481 -3.651273 -11.160262 0.233740 -3.111614 -8.589585 0.000000 0.000000 0.000000 12.920409 13.498781 -31.132420 -5.359945 -13.777976 42.355306 -1.028366 10.800634 -18.515527 -0.094462 1.982081 -5.455989 1.159799 -1.802051 15.366398 5.464734 -2.216097 3.576214 5.582066 -1.229237 -4.624647 -8.667596 9.141564 -21.114141 4.213034 14.012470 10.273492 4.067687 6.824004 5.563997 0.000000 0.000000 0.000000 -19.638021 -40.232006 -91.819277 33.582151 -43.772436 13.823289 27.898559 -3.555497 -6.815209 0.000000 0.000000 0.000000 -7.125000 0.000000 0.000000 0.965517 37.679100 0.174695 0.000000 0.000000 0.000000 -25.505430 -25.688332 51.992595 -94.528279 -59.920417 -63.920480 -33.878029 -63.912746 -6.737654 0.000000 0.000000 0.000000 7.125000 0.000000 0.000000 -5.181341 21.893312 -2.887179
12.143631 16.782044 -2.021637 -153.271194 -79.578411 162.378833 0.000000 0.000000 0.000000 1.286435 -2.347958 -28.579351 3.623002 11.640980 34.473460 0.413299 -3.571520 -11.445207 0.280240 -3.403978 -9.405695 0.000000 0.000000 0.000000 12.193994 14.182914 -31.227553 -5.391892 -13.811952 42.489445 -1.022336 11.233230 -18.550379 -0.097767 2.016629 -5.551702 1.236252 -1.399900 15.320328 4.875329 -1.645655 3.213954 4.804432 -0.922981 -5.055059 -7.360547 9.340298 -18.828737 3.799763 13.811382 9.536802 3.578596 6.771282 5.105362 0.000000 0.000000 0.000000 -20.732304 -40.978232 -95.977968 34.731767 -44.618480 14.625004 26.533347 -5.222753 -7.444135 0.000000 0.000000 0.000000 -7.125000 0.000000 0.000000 -0.237625 38.288190 -0.038461 0.000000 0.000000 0.000000 -29.134632 -25.686389 49.386900 -98.442020 -59.726696 -67.304173 -33.682081 -63.261465 -6.640029 0.000000 0.000000 0.000000 7.125000 0.000000 0.000000 -5.049325 22.026851 -2.797783
12.133195 16.765772 -1.939687 -157.430758 -78.451033 166.455015 0.000000 0.000000 0.000000 0.631136 -1.308895 -28.720816 3.749424 11.819167 35.095484 0.440219 -3.475699 -11.824776 0.324044 -3.658526 -10.118001 0.000000 0.000000 0.000000 11.545031 14.869083 -31.367935 -5.436032 -13.858621 42.673995 -1.053018 11.514820 -18.852898 -0.123673 2.265277 -6.239457 1.171107 -1.227189 15.359980 4.526264 -1.420230 3.059650 4.429073 -0.801088 -5.265068 -6.720876 9.632208 -17.702307 3.583067 13.996604 9.133708 3.352511 6.882389 4.849887 0.000000 0.000000 0.000000 -21.652111 -42.243977 -99.076493 36.017137 -45.523866 15.535030 25.286336 -6.715742 -8.233946 0.000000 0.000000 0.000000 -7.125000 0.000000 0.000000 -1.370730 39.068288 -0.198994 0.000000 0.000000 0.000000 -33.185950 -26.510195 47.230543 -101.696360 -59.474801 -70.111319 -33.259992 -62.657347 -6.340354 0.000000 0.000000 0.000000 7.125000 0.000000 0.000000 -4.771852 22.418888 -2.600293
12.121404 16.749026 -1.863742 -160.653472 -77.238501 169.630619 0.000000 0.000000 0.000000 0.069257 -0.343055 -28.825637 3.868488 11.983284 35.672851 0.473802 -3.308490 -12.290222 0.359109 -3.849748 -10.654343 0.000000 0.000000 0.000000 10.986862 15.607387 -31.550186 -5.494067 -13.919453 42.915749 -1.126439 11.640326 -19.453408 -0.177482 2.711462 -7.476589 0.998934 -1.167969 15.409027 4.318947 -1.374797 3.055296 4.297928 -0.774667 -5.300994 -6.514883 10.007591 -17.324252 3.480295 14.436221 8.908152 3.288031 7.104998 4.717041 0.000000 0.000000 0.000000 -22.654991 -43.890993 -101.581053 37.192906 -46.315256 16.379666 23.950580 -8.268917 -9.115081 0.000000 0.000000 0.000000 -7.125000 0.000000 0.000000 -2.614601 39.923601 -0.326168 0.000000 0.000000 0.000000 -37.661590 -27.816596 45.249190 -104.553356 -59.182825 -72.568891 -32.795473 -62.339803 -5.814265 0.000000 0.000000 0.000000 7.125000 0.000000 0.000000 -4.480439 23.077960 -2.372881
